<svg width="4427" height="346" viewBox="0 0 4427 346" fill="none" xmlns="http://www.w3.org/2000/svg">
  <style>
    @media (prefers-color-scheme: dark) {
      #middle-box {
        fill: #181818;
        x: 1775px;
        width: 1393px;
      }

      path {
        fill: #ffffff;
      }

      #first-box {
        display: none;
      }
    }
  </style>
  <rect id="middle-box" x="3170" y="7" width="1257" height="324" rx="10" fill="#181818" />
  <path
    d="M3214.58 269.112V254.52C3214.58 250.253 3216.62 248.12 3220.72 248.12H3234.29C3238.55 248.12 3240.69 250.253 3240.69 254.52V269.112C3240.69 273.037 3238.55 275 3234.29 275H3220.72C3216.62 275 3214.58 273.037 3214.58 269.112ZM3283.05 275V87.608H3352.68C3363.77 87.608 3373.41 89.7413 3381.61 94.008C3389.97 98.104 3396.45 103.309 3401.06 109.624C3405.67 115.939 3409.42 123.533 3412.33 132.408C3415.23 141.283 3417.1 149.645 3417.96 157.496C3418.81 165.176 3419.24 173.368 3419.24 182.072C3419.24 190.947 3418.47 199.651 3416.93 208.184C3415.57 216.547 3413.18 224.824 3409.77 233.016C3406.52 241.208 3402.43 248.376 3397.48 254.52C3392.53 260.664 3386.21 265.613 3378.53 269.368C3370.85 273.123 3362.23 275 3352.68 275H3283.05ZM3301.99 255.288H3352.68C3363.43 255.288 3372.47 251.875 3379.81 245.048C3387.15 238.051 3392.36 229.261 3395.43 218.68C3398.67 207.928 3400.29 195.64 3400.29 181.816C3400.29 155.363 3396.2 136.248 3388.01 124.472C3379.98 112.525 3368.21 106.552 3352.68 106.552H3301.99V255.288ZM3441.06 242.744V227.128C3441.06 216.717 3444.04 208.44 3450.02 202.296C3456.16 196.152 3464.52 193.08 3475.1 193.08C3492 193.08 3505.99 193.08 3517.09 193.08C3521.7 193.08 3525.28 193.08 3527.84 193.08C3530.57 193.08 3531.94 193.08 3531.94 193.08C3531.94 188.131 3531.94 183.949 3531.94 180.536C3531.94 179.853 3531.94 179.256 3531.94 178.744C3531.94 178.232 3531.94 177.805 3531.94 177.464C3531.94 176.952 3531.94 176.611 3531.94 176.44C3531.94 176.099 3531.94 175.928 3531.94 175.928C3531.94 161.933 3524.94 154.936 3510.94 154.936C3495.58 154.936 3473.74 155.96 3445.41 158.008V144.184C3462.64 139.405 3484.75 136.845 3511.71 136.504C3511.88 136.504 3512.14 136.504 3512.48 136.504C3523.74 136.504 3532.96 139.832 3540.13 146.488C3547.3 152.973 3550.88 162.787 3550.88 175.928V275H3536.8L3531.94 258.616L3528.1 260.408C3525.71 261.603 3522.46 263.139 3518.37 265.016C3514.27 266.723 3509.83 268.515 3505.06 270.392C3500.28 272.099 3495.16 273.549 3489.7 274.744C3484.23 275.939 3479.37 276.536 3475.1 276.536C3465.38 276.536 3457.27 273.549 3450.78 267.576C3444.3 261.603 3441.06 253.325 3441.06 242.744ZM3460 241.464C3460 252.216 3465.03 257.592 3475.1 257.592C3481.25 257.592 3489.01 256.483 3498.4 254.264C3507.96 252.045 3515.98 249.912 3522.46 247.864L3531.94 244.536V207.928L3475.1 212.024C3469.98 212.536 3466.14 214.328 3463.58 217.4C3461.19 220.472 3460 224.227 3460 228.664V241.464ZM3568.69 157.752V143.416L3594.03 138.808L3598.64 100.92H3612.97V138.808H3652.65V157.752H3612.97V226.36C3612.97 236.771 3614.17 244.024 3616.56 248.12C3618.95 252.045 3622.62 254.605 3627.57 255.8C3641.56 259.384 3649.15 261.176 3650.35 261.176V274.744H3627.82C3605.29 274.744 3594.03 258.616 3594.03 226.36V157.752H3568.69ZM3670.56 242.744V227.128C3670.56 216.717 3673.54 208.44 3679.52 202.296C3685.66 196.152 3694.02 193.08 3704.6 193.08C3721.5 193.08 3735.49 193.08 3746.59 193.08C3751.2 193.08 3754.78 193.08 3757.34 193.08C3760.07 193.08 3761.44 193.08 3761.44 193.08C3761.44 188.131 3761.44 183.949 3761.44 180.536C3761.44 179.853 3761.44 179.256 3761.44 178.744C3761.44 178.232 3761.44 177.805 3761.44 177.464C3761.44 176.952 3761.44 176.611 3761.44 176.44C3761.44 176.099 3761.44 175.928 3761.44 175.928C3761.44 161.933 3754.44 154.936 3740.44 154.936C3725.08 154.936 3703.24 155.96 3674.91 158.008V144.184C3692.14 139.405 3714.25 136.845 3741.21 136.504C3741.38 136.504 3741.64 136.504 3741.98 136.504C3753.24 136.504 3762.46 139.832 3769.63 146.488C3776.8 152.973 3780.38 162.787 3780.38 175.928V275H3766.3L3761.44 258.616L3757.6 260.408C3755.21 261.603 3751.96 263.139 3747.87 265.016C3743.77 266.723 3739.33 268.515 3734.56 270.392C3729.78 272.099 3724.66 273.549 3719.2 274.744C3713.73 275.939 3708.87 276.536 3704.6 276.536C3694.88 276.536 3686.77 273.549 3680.28 267.576C3673.8 261.603 3670.56 253.325 3670.56 242.744ZM3689.5 241.464C3689.5 252.216 3694.53 257.592 3704.6 257.592C3710.75 257.592 3718.51 256.483 3727.9 254.264C3737.46 252.045 3745.48 249.912 3751.96 247.864L3761.44 244.536V207.928L3704.6 212.024C3699.48 212.536 3695.64 214.328 3693.08 217.4C3690.69 220.472 3689.5 224.227 3689.5 228.664V241.464ZM3804.59 87.608H3825.32L3880.11 244.792L3937.45 87.608H3958.19L3889.32 275H3870.38L3804.59 87.608ZM3974.81 242.744V227.128C3974.81 216.717 3977.79 208.44 3983.77 202.296C3989.91 196.152 3998.27 193.08 4008.85 193.08C4025.75 193.08 4039.74 193.08 4050.84 193.08C4055.45 193.08 4059.03 193.08 4061.59 193.08C4064.32 193.08 4065.69 193.08 4065.69 193.08C4065.69 188.131 4065.69 183.949 4065.69 180.536C4065.69 179.853 4065.69 179.256 4065.69 178.744C4065.69 178.232 4065.69 177.805 4065.69 177.464C4065.69 176.952 4065.69 176.611 4065.69 176.44C4065.69 176.099 4065.69 175.928 4065.69 175.928C4065.69 161.933 4058.69 154.936 4044.69 154.936C4029.33 154.936 4007.49 155.96 3979.16 158.008V144.184C3996.39 139.405 4018.5 136.845 4045.46 136.504C4045.63 136.504 4045.89 136.504 4046.23 136.504C4057.49 136.504 4066.71 139.832 4073.88 146.488C4081.05 152.973 4084.63 162.787 4084.63 175.928V275H4070.55L4065.69 258.616L4061.85 260.408C4059.46 261.603 4056.21 263.139 4052.12 265.016C4048.02 266.723 4043.58 268.515 4038.81 270.392C4034.03 272.099 4028.91 273.549 4023.45 274.744C4017.98 275.939 4013.12 276.536 4008.85 276.536C3999.13 276.536 3991.02 273.549 3984.53 267.576C3978.05 261.603 3974.81 253.325 3974.81 242.744ZM3993.75 241.464C3993.75 252.216 3998.78 257.592 4008.85 257.592C4015 257.592 4022.76 256.483 4032.15 254.264C4041.71 252.045 4049.73 249.912 4056.21 247.864L4065.69 244.536V207.928L4008.85 212.024C4003.73 212.536 3999.89 214.328 3997.33 217.4C3994.94 220.472 3993.75 224.227 3993.75 228.664V241.464ZM4110.12 233.784V139.064H4129.06V233.784C4129.06 241.805 4131.19 247.949 4135.46 252.216C4139.73 256.312 4145.27 258.36 4152.1 258.36C4158.58 258.36 4164.73 257.677 4170.53 256.312C4176.33 254.947 4180.94 253.581 4184.36 252.216C4187.94 250.68 4193.91 247.864 4202.28 243.768V139.064H4221.22V275H4207.91L4202.28 259.128C4201.76 259.299 4199.89 260.408 4196.64 262.456C4193.4 264.333 4191.35 265.443 4190.5 265.784C4189.82 266.125 4188.02 267.149 4185.12 268.856C4182.22 270.392 4180.17 271.331 4178.98 271.672C4177.78 272.013 4175.82 272.696 4173.09 273.72C4170.36 274.744 4168.06 275.427 4166.18 275.768C4164.47 276.109 4162.34 276.451 4159.78 276.792C4157.22 277.133 4154.66 277.304 4152.1 277.304C4139.13 277.304 4128.89 273.037 4121.38 264.504C4113.87 255.971 4110.12 245.731 4110.12 233.784ZM4251.93 226.616V74.552H4270.87V226.616C4270.87 237.027 4272.06 244.28 4274.45 248.376C4276.84 252.301 4280.51 254.861 4285.46 256.056C4299.46 259.64 4307.05 261.432 4308.25 261.432V275H4285.72C4263.19 275 4251.93 258.872 4251.93 226.616ZM4318.44 157.752V143.416L4343.78 138.808L4348.39 100.92H4362.72V138.808H4402.4V157.752H4362.72V226.36C4362.72 236.771 4363.92 244.024 4366.31 248.12C4368.7 252.045 4372.37 254.605 4377.32 255.8C4391.31 259.384 4398.9 261.176 4400.1 261.176V274.744H4377.57C4355.04 274.744 4343.78 258.616 4343.78 226.36V157.752H4318.44Z"
    fill="white" />
  <path id="middle-word"
    d="M1827.36 276V88.608H1904.42C1934.28 88.608 1949.22 106.699 1949.22 142.88C1949.22 153.12 1948.19 161.909 1946.14 169.248C1944.27 176.587 1941.88 182.219 1938.98 186.144C1936.25 189.899 1932.66 192.885 1928.22 195.104C1923.79 197.152 1919.86 198.432 1916.45 198.944C1913.03 199.456 1909.02 199.712 1904.42 199.712C1899.47 199.712 1888.71 198.944 1872.16 197.408C1855.61 195.872 1846.99 194.933 1846.3 194.592V276H1827.36ZM1846.3 180.768H1904.42C1912.61 180.768 1918.92 178.293 1923.36 173.344C1927.8 168.395 1930.02 158.24 1930.02 142.88C1929.85 135.029 1928.91 128.544 1927.2 123.424C1925.49 118.304 1923.1 114.72 1920.03 112.672C1917.13 110.624 1914.57 109.344 1912.35 108.832C1910.13 108.149 1907.49 107.808 1904.42 107.808H1846.3V180.768ZM1973.55 209.952C1973.55 182.475 1977.9 163.787 1986.61 153.888C1995.31 143.819 2010.93 138.784 2033.45 138.784C2056.32 138.784 2072.02 143.904 2080.56 154.144C2089.09 164.213 2093.36 182.816 2093.36 209.952C2093.36 235.381 2089.09 252.96 2080.56 262.688C2072.02 272.416 2056.32 277.28 2033.45 277.28C2010.93 277.28 1995.31 272.245 1986.61 262.176C1977.9 252.107 1973.55 234.699 1973.55 209.952ZM1992.49 209.952C1992.49 221.045 1993.26 229.92 1994.8 236.576C1996.5 243.232 1999.32 248.096 2003.25 251.168C2007.34 254.24 2011.44 256.203 2015.53 257.056C2019.8 257.909 2025.77 258.336 2033.45 258.336C2041.3 258.336 2047.36 257.909 2051.63 257.056C2056.07 256.203 2060.16 254.24 2063.92 251.168C2067.84 247.925 2070.57 243.061 2072.11 236.576C2073.65 229.92 2074.41 221.045 2074.41 209.952C2074.41 197.835 2073.73 188.277 2072.37 181.28C2071.17 174.283 2068.7 169.077 2064.94 165.664C2061.19 162.08 2057.09 159.861 2052.65 159.008C2048.39 158.155 2041.99 157.728 2033.45 157.728C2026.97 157.728 2021.85 157.984 2018.09 158.496C2014.34 159.008 2010.58 160.203 2006.83 162.08C2003.08 163.957 2000.26 166.773 1998.38 170.528C1996.68 174.283 1995.22 179.403 1994.03 185.888C1993.01 192.203 1992.49 200.224 1992.49 209.952ZM2111.37 140.064H2132.11L2172.3 248.096L2207.63 140.064H2228.11L2214.28 183.584L2243.98 248.096L2285.45 140.064H2306.19L2254.22 276H2235.27L2205.07 209.44L2182.79 276H2162.31L2111.37 140.064ZM2324.05 207.392C2324.05 192.373 2325.07 180.341 2327.12 171.296C2329.17 162.08 2332.84 155.168 2338.13 150.56C2343.59 145.781 2349.56 142.709 2356.05 141.344C2362.71 139.808 2371.84 139.04 2383.44 139.04C2392.83 139.04 2400.17 139.467 2405.46 140.32C2410.75 141.173 2415.95 143.136 2421.07 146.208C2426.19 149.28 2429.86 154.144 2432.08 160.8C2434.3 167.456 2435.41 176.245 2435.41 187.168C2435.41 207.989 2423.72 218.4 2400.34 218.4H2342.99C2342.99 234.272 2344.79 244.939 2348.37 250.4C2351.95 255.691 2358.78 258.336 2368.85 258.336C2370.04 258.336 2371.84 258.336 2374.23 258.336C2376.62 258.336 2378.41 258.336 2379.6 258.336C2403.5 258.336 2421.24 257.483 2432.85 255.776V270.112C2415.95 274.891 2394.62 277.28 2368.85 277.28C2351.61 277.28 2339.84 272.331 2333.52 262.432C2327.21 252.533 2324.05 234.187 2324.05 207.392ZM2342.99 199.712H2400.34C2411.09 199.712 2416.47 195.531 2416.47 187.168C2416.47 174.027 2414.5 165.92 2410.58 162.848C2406.82 159.605 2397.86 157.984 2383.7 157.984C2377.72 157.984 2373.29 158.069 2370.39 158.24C2367.66 158.411 2364.33 158.923 2360.4 159.776C2356.65 160.459 2353.92 161.653 2352.21 163.36C2350.67 165.067 2348.97 167.456 2347.09 170.528C2345.38 173.6 2344.27 177.525 2343.76 182.304C2343.25 187.083 2342.99 192.885 2342.99 199.712ZM2461.11 276V140.064H2474.42L2480.05 157.216C2480.91 156.704 2483.04 155.424 2486.45 153.376C2490.04 151.328 2492.34 150.048 2493.37 149.536C2494.56 148.853 2496.69 147.744 2499.77 146.208C2502.84 144.672 2505.23 143.648 2506.93 143.136C2508.81 142.453 2511.12 141.685 2513.85 140.832C2516.75 139.979 2519.56 139.381 2522.29 139.04C2525.02 138.699 2527.84 138.528 2530.74 138.528C2540.64 138.528 2546.96 139.211 2549.69 140.576V159.264C2545.59 158.24 2539.28 157.728 2530.74 157.728C2524.26 157.728 2518.03 158.411 2512.05 159.776C2506.25 161.141 2501.56 162.592 2497.97 164.128C2494.56 165.664 2488.59 168.48 2480.05 172.576V276H2461.11ZM2571.39 149.536V132.64C2571.39 115.403 2575.83 103.541 2584.7 97.056C2593.58 90.4 2606.04 87.072 2622.08 87.072C2633.68 87.072 2655.02 89.12 2686.08 93.216V108.576L2622.08 106.016C2620.03 105.845 2618.24 105.76 2616.7 105.76C2608 105.76 2601.43 107.637 2596.99 111.392C2592.55 114.976 2590.33 122.059 2590.33 132.64V149.536C2590.33 160.117 2592.38 166.944 2596.48 170.016C2600.74 173.088 2607.4 174.624 2616.45 174.624H2652.8C2679.42 174.624 2692.73 189.301 2692.73 218.656V236.064C2692.73 244.768 2691.28 252.021 2688.38 257.824C2685.48 263.627 2681.38 267.979 2676.09 270.88C2670.8 273.611 2665.43 275.488 2659.97 276.512C2654.5 277.536 2648.19 278.048 2641.02 278.048C2635.05 278.048 2624.47 277.28 2609.28 275.744C2594.26 274.208 2583.51 272.843 2577.02 271.648V256.288C2595.8 258.165 2617.13 259.104 2641.02 259.104C2662.87 259.104 2673.79 251.424 2673.79 236.064V218.656C2673.79 210.635 2672.25 204.491 2669.18 200.224C2666.11 195.787 2660.65 193.568 2652.8 193.568H2616.96C2607.23 193.568 2599.12 192.373 2592.64 189.984C2586.32 187.595 2581.72 184.096 2578.81 179.488C2575.91 174.88 2573.95 170.357 2572.93 165.92C2571.9 161.312 2571.39 155.851 2571.39 149.536ZM2719.61 276V75.296H2738.55V155.936C2739.07 155.765 2740.94 154.741 2744.19 152.864C2747.43 150.816 2749.39 149.621 2750.07 149.28C2750.93 148.939 2752.8 148 2755.71 146.464C2758.61 144.757 2760.66 143.733 2761.85 143.392C2763.04 143.051 2765.01 142.368 2767.74 141.344C2770.47 140.32 2772.69 139.637 2774.39 139.296C2776.27 138.955 2778.49 138.613 2781.05 138.272C2783.61 137.931 2786.17 137.76 2788.73 137.76C2801.7 137.76 2811.94 142.027 2819.45 150.56C2826.96 159.093 2830.71 169.333 2830.71 181.28V276H2811.77V181.28C2811.77 173.088 2809.64 166.944 2805.37 162.848C2801.27 158.752 2795.73 156.704 2788.73 156.704C2782.24 156.704 2776.1 157.387 2770.3 158.752C2764.5 160.117 2759.8 161.568 2756.22 163.104C2752.8 164.469 2746.92 167.2 2738.55 171.296V276H2719.61ZM2856.3 207.392C2856.3 192.373 2857.32 180.341 2859.37 171.296C2861.42 162.08 2865.09 155.168 2870.38 150.56C2875.84 145.781 2881.81 142.709 2888.3 141.344C2894.96 139.808 2904.09 139.04 2915.69 139.04C2925.08 139.04 2932.42 139.467 2937.71 140.32C2943 141.173 2948.2 143.136 2953.32 146.208C2958.44 149.28 2962.11 154.144 2964.33 160.8C2966.55 167.456 2967.66 176.245 2967.66 187.168C2967.66 207.989 2955.97 218.4 2932.59 218.4H2875.24C2875.24 234.272 2877.04 244.939 2880.62 250.4C2884.2 255.691 2891.03 258.336 2901.1 258.336C2902.29 258.336 2904.09 258.336 2906.48 258.336C2908.87 258.336 2910.66 258.336 2911.85 258.336C2935.75 258.336 2953.49 257.483 2965.1 255.776V270.112C2948.2 274.891 2926.87 277.28 2901.1 277.28C2883.86 277.28 2872.09 272.331 2865.77 262.432C2859.46 252.533 2856.3 234.187 2856.3 207.392ZM2875.24 199.712H2932.59C2943.34 199.712 2948.72 195.531 2948.72 187.168C2948.72 174.027 2946.75 165.92 2942.83 162.848C2939.07 159.605 2930.11 157.984 2915.95 157.984C2909.97 157.984 2905.54 158.069 2902.64 158.24C2899.91 158.411 2896.58 158.923 2892.65 159.776C2888.9 160.459 2886.17 161.653 2884.46 163.36C2882.92 165.067 2881.22 167.456 2879.34 170.528C2877.63 173.6 2876.52 177.525 2876.01 182.304C2875.5 187.083 2875.24 192.885 2875.24 199.712ZM2993.36 227.616V75.552H3012.3V227.616C3012.3 238.027 3013.5 245.28 3015.89 249.376C3018.28 253.301 3021.95 255.861 3026.9 257.056C3040.89 260.64 3048.49 262.432 3049.68 262.432V276H3027.15C3004.62 276 2993.36 259.872 2993.36 227.616ZM3070.11 227.616V75.552H3089.05V227.616C3089.05 238.027 3090.25 245.28 3092.64 249.376C3095.03 253.301 3098.7 255.861 3103.65 257.056C3117.64 260.64 3125.24 262.432 3126.43 262.432V276H3103.9C3081.37 276 3070.11 259.872 3070.11 227.616Z"
    fill="#181818" />
  <rect id="first-box" y="8" width="1775" height="324" rx="10" fill="#181818" />
  <path
    d="M51.48 244.512V121.888C51.48 110.453 54.296 102.091 59.928 96.8C65.56 91.3387 72.8133 88.608 81.688 88.608C82.0293 88.608 82.3707 88.608 82.712 88.608C83.0533 88.608 83.3947 88.608 83.736 88.608L164.632 92.704V107.552H83.736C79.64 107.552 76.4827 108.405 74.264 110.112C72.216 111.648 71.0213 113.269 70.68 114.976C70.5093 116.512 70.424 118.816 70.424 121.888V173.088L154.392 175.648V190.752L70.424 193.312V244.512C70.424 247.584 70.8507 250.144 71.704 252.192C72.5573 254.069 73.8373 255.435 75.544 256.288C77.2507 256.971 78.7013 257.397 79.896 257.568C81.2613 257.739 83.1387 257.824 85.528 257.824C85.528 257.824 85.6133 257.824 85.784 257.824C85.9547 257.824 86.1253 257.824 86.296 257.824H164.632V272.416L86.296 276.768C85.6133 276.768 84.9307 276.768 84.248 276.768C83.5653 276.939 82.8827 277.024 82.2 277.024C77.9333 277.024 74.0933 276.597 70.68 275.744C67.2667 274.72 64.024 273.099 60.952 270.88C58.0507 268.491 55.7467 265.077 54.04 260.64C52.3333 256.203 51.48 250.827 51.48 244.512ZM191.61 276V140.064H204.922L210.554 156.448C211.578 155.765 213.626 154.571 216.698 152.864C219.941 150.987 222.159 149.707 223.354 149.024C224.719 148.171 226.767 147.061 229.498 145.696C232.399 144.331 234.703 143.392 236.41 142.88C238.287 142.197 240.506 141.429 243.066 140.576C245.626 139.723 248.186 139.211 250.746 139.04C253.477 138.699 256.207 138.528 258.938 138.528C267.471 138.528 275.151 140.32 281.978 143.904C288.805 147.488 293.669 152.352 296.57 158.496C312.613 145.184 330.874 138.528 351.354 138.528C363.301 138.528 373.285 142.624 381.306 150.816C389.327 159.008 393.338 169.504 393.338 182.304V276H374.394V182.304C374.394 174.795 372.175 168.821 367.738 164.384C363.471 159.776 358.01 157.472 351.354 157.472C341.114 157.472 332.239 158.496 324.73 160.544C317.391 162.592 309.541 166.347 301.178 171.808V181.792V276H282.234V182.304C282.234 174.795 280.015 168.821 275.578 164.384C271.311 159.776 265.765 157.472 258.938 157.472C252.623 157.472 246.65 158.155 241.018 159.52C235.557 160.885 231.29 162.251 228.218 163.616C225.146 164.811 219.258 167.541 210.554 171.808V276H191.61ZM421.61 345.12V140.064H435.178L440.042 155.168C444.309 152.096 451.818 148.597 462.57 144.672C473.322 140.576 482.623 138.528 490.474 138.528C499.349 138.528 506.858 140.576 513.002 144.672C519.146 148.768 523.754 154.4 526.826 161.568C529.898 168.565 532.031 175.819 533.226 183.328C534.591 190.667 535.274 198.688 535.274 207.392C535.274 217.291 534.677 225.995 533.482 233.504C532.458 240.843 530.41 248.181 527.338 255.52C524.437 262.688 519.829 268.235 513.514 272.16C507.37 276.085 499.69 278.048 490.474 278.048C484.159 278.048 476.053 277.109 466.154 275.232C456.426 273.355 447.722 270.88 440.042 267.808V345.12H421.61ZM440.042 252.448C457.109 256.885 473.919 259.104 490.474 259.104C499.349 259.104 505.834 255.435 509.93 248.096C514.197 240.757 516.33 227.189 516.33 207.392C516.33 174.112 507.711 157.472 490.474 157.472C476.138 157.472 459.327 161.397 440.042 169.248V252.448ZM563.36 276V140.064H576.672L582.304 157.216C583.157 156.704 585.291 155.424 588.704 153.376C592.288 151.328 594.592 150.048 595.616 149.536C596.811 148.853 598.944 147.744 602.016 146.208C605.088 144.672 607.477 143.648 609.184 143.136C611.061 142.453 613.365 141.685 616.096 140.832C618.997 139.979 621.813 139.381 624.544 139.04C627.275 138.699 630.091 138.528 632.992 138.528C642.891 138.528 649.205 139.211 651.936 140.576V159.264C647.84 158.24 641.525 157.728 632.992 157.728C626.507 157.728 620.277 158.411 614.304 159.776C608.501 161.141 603.808 162.592 600.224 164.128C596.811 165.664 590.837 168.48 582.304 172.576V276H563.36ZM669.8 207.392C669.8 192.373 670.824 180.341 672.872 171.296C674.92 162.08 678.589 155.168 683.88 150.56C689.341 145.781 695.315 142.709 701.8 141.344C708.456 139.808 717.587 139.04 729.192 139.04C738.579 139.04 745.917 139.467 751.208 140.32C756.499 141.173 761.704 143.136 766.824 146.208C771.944 149.28 775.613 154.144 777.832 160.8C780.051 167.456 781.16 176.245 781.16 187.168C781.16 207.989 769.469 218.4 746.088 218.4H688.744C688.744 234.272 690.536 244.939 694.12 250.4C697.704 255.691 704.531 258.336 714.6 258.336C715.795 258.336 717.587 258.336 719.976 258.336C722.365 258.336 724.157 258.336 725.352 258.336C749.245 258.336 766.995 257.483 778.6 255.776V270.112C761.704 274.891 740.371 277.28 714.6 277.28C697.363 277.28 685.587 272.331 679.272 262.432C672.957 252.533 669.8 234.187 669.8 207.392ZM688.744 199.712H746.088C756.84 199.712 762.216 195.531 762.216 187.168C762.216 174.027 760.253 165.92 756.328 162.848C752.573 159.605 743.613 157.984 729.448 157.984C723.475 157.984 719.037 158.069 716.136 158.24C713.405 158.411 710.077 158.923 706.152 159.776C702.397 160.459 699.667 161.653 697.96 163.36C696.424 165.067 694.717 167.456 692.84 170.528C691.133 173.6 690.024 177.525 689.512 182.304C689 187.083 688.744 192.885 688.744 199.712ZM801.74 184.352V172.576C801.74 161.483 804.471 153.12 809.932 147.488C815.393 141.685 824.439 138.784 837.068 138.784C853.281 138.784 875.553 140.149 903.884 142.88V157.472H837.068C833.143 157.472 829.985 157.813 827.596 158.496C825.207 159.179 823.5 160.373 822.476 162.08C821.623 163.616 821.111 165.067 820.94 166.432C820.769 167.797 820.684 169.845 820.684 172.576V184.352C820.684 187.765 821.025 190.496 821.708 192.544C822.561 194.592 823.841 196.043 825.548 196.896C827.255 197.749 828.876 198.347 830.412 198.688C831.948 198.859 834.167 198.944 837.068 198.944H877.516C888.268 198.944 896.46 202.016 902.092 208.16C907.895 214.133 910.796 222.069 910.796 231.968V244.512C910.796 257.141 907.724 265.76 901.58 270.368C895.436 274.976 887.415 277.28 877.516 277.28C861.644 277.28 838.263 275.659 807.372 272.416V258.336H877.516C877.857 258.336 878.199 258.336 878.54 258.336C879.735 258.336 880.929 258.251 882.124 258.08C883.319 257.739 884.684 257.141 886.22 256.288C887.927 255.435 889.292 253.984 890.316 251.936C891.34 249.888 891.852 247.413 891.852 244.512V231.968C891.852 227.189 890.743 223.691 888.524 221.472C886.476 219.083 882.807 217.888 877.516 217.888H837.068C824.609 217.888 815.564 215.499 809.932 210.72C804.471 205.941 801.74 197.152 801.74 184.352ZM931.24 184.352V172.576C931.24 161.483 933.971 153.12 939.432 147.488C944.893 141.685 953.939 138.784 966.568 138.784C982.781 138.784 1005.05 140.149 1033.38 142.88V157.472H966.568C962.643 157.472 959.485 157.813 957.096 158.496C954.707 159.179 953 160.373 951.976 162.08C951.123 163.616 950.611 165.067 950.44 166.432C950.269 167.797 950.184 169.845 950.184 172.576V184.352C950.184 187.765 950.525 190.496 951.208 192.544C952.061 194.592 953.341 196.043 955.048 196.896C956.755 197.749 958.376 198.347 959.912 198.688C961.448 198.859 963.667 198.944 966.568 198.944H1007.02C1017.77 198.944 1025.96 202.016 1031.59 208.16C1037.39 214.133 1040.3 222.069 1040.3 231.968V244.512C1040.3 257.141 1037.22 265.76 1031.08 270.368C1024.94 274.976 1016.91 277.28 1007.02 277.28C991.144 277.28 967.763 275.659 936.872 272.416V258.336H1007.02C1007.36 258.336 1007.7 258.336 1008.04 258.336C1009.23 258.336 1010.43 258.251 1011.62 258.08C1012.82 257.739 1014.18 257.141 1015.72 256.288C1017.43 255.435 1018.79 253.984 1019.82 251.936C1020.84 249.888 1021.35 247.413 1021.35 244.512V231.968C1021.35 227.189 1020.24 223.691 1018.02 221.472C1015.98 219.083 1012.31 217.888 1007.02 217.888H966.568C954.109 217.888 945.064 215.499 939.432 210.72C933.971 205.941 931.24 197.152 931.24 184.352ZM1072.26 270.112V255.52C1072.26 251.253 1074.31 249.12 1078.4 249.12H1091.97C1096.24 249.12 1098.37 251.253 1098.37 255.52V270.112C1098.37 274.037 1096.24 276 1091.97 276H1078.4C1074.31 276 1072.26 274.037 1072.26 270.112ZM1140.73 243.744V88.608H1159.67V243.744C1159.67 245.621 1159.84 247.243 1160.19 248.608C1160.53 249.973 1160.87 251.168 1161.21 252.192C1161.72 253.045 1162.4 253.813 1163.26 254.496C1164.11 255.179 1164.88 255.691 1165.56 256.032C1166.42 256.373 1167.44 256.629 1168.63 256.8C1169.83 256.971 1170.77 257.056 1171.45 257.056C1172.3 257.056 1173.41 257.056 1174.78 257.056C1174.78 257.056 1174.86 257.056 1175.03 257.056C1175.2 257.056 1175.38 257.056 1175.55 257.056H1253.88V276H1175.55C1170.6 276 1166.33 275.659 1162.75 274.976C1159.16 274.293 1155.58 272.928 1151.99 270.88C1148.41 268.832 1145.59 265.504 1143.55 260.896C1141.67 256.288 1140.73 250.571 1140.73 243.744ZM1272.99 243.744V228.128C1272.99 217.717 1275.98 209.44 1281.95 203.296C1288.09 197.152 1296.46 194.08 1307.04 194.08C1323.93 194.08 1337.93 194.08 1349.02 194.08C1353.63 194.08 1357.21 194.08 1359.77 194.08C1362.5 194.08 1363.87 194.08 1363.87 194.08C1363.87 189.131 1363.87 184.949 1363.87 181.536C1363.87 180.853 1363.87 180.256 1363.87 179.744C1363.87 179.232 1363.87 178.805 1363.87 178.464C1363.87 177.952 1363.87 177.611 1363.87 177.44C1363.87 177.099 1363.87 176.928 1363.87 176.928C1363.87 162.933 1356.87 155.936 1342.88 155.936C1327.52 155.936 1305.67 156.96 1277.34 159.008V145.184C1294.58 140.405 1316.68 137.845 1343.65 137.504C1343.82 137.504 1344.07 137.504 1344.41 137.504C1355.68 137.504 1364.89 140.832 1372.06 147.488C1379.23 153.973 1382.81 163.787 1382.81 176.928V276H1368.73L1363.87 259.616L1360.03 261.408C1357.64 262.603 1354.4 264.139 1350.3 266.016C1346.21 267.723 1341.77 269.515 1336.99 271.392C1332.21 273.099 1327.09 274.549 1321.63 275.744C1316.17 276.939 1311.3 277.536 1307.04 277.536C1297.31 277.536 1289.2 274.549 1282.72 268.576C1276.23 262.603 1272.99 254.325 1272.99 243.744ZM1291.93 242.464C1291.93 253.216 1296.97 258.592 1307.04 258.592C1313.18 258.592 1320.95 257.483 1330.33 255.264C1339.89 253.045 1347.91 250.912 1354.4 248.864L1363.87 245.536V208.928L1307.04 213.024C1301.92 213.536 1298.08 215.328 1295.52 218.4C1293.13 221.472 1291.93 225.227 1291.93 229.664V242.464ZM1410.86 276V75.04H1429.29V148.256C1436.97 145.184 1445.68 142.709 1455.4 140.832C1465.3 138.955 1473.41 138.016 1479.72 138.016C1488.94 138.016 1496.62 139.979 1502.76 143.904C1509.08 147.829 1513.69 153.461 1516.59 160.8C1519.66 167.968 1521.71 175.307 1522.73 182.816C1523.93 190.155 1524.52 198.773 1524.52 208.672C1524.52 217.376 1523.84 225.483 1522.48 232.992C1521.28 240.331 1519.15 247.584 1516.08 254.752C1513 261.749 1508.4 267.296 1502.25 271.392C1496.11 275.488 1488.6 277.536 1479.72 277.536C1471.87 277.536 1462.57 275.573 1451.82 271.648C1441.24 267.552 1433.81 263.968 1429.55 260.896L1424.43 276H1410.86ZM1429.55 246.816C1448.83 254.667 1465.56 258.592 1479.72 258.592C1496.96 258.592 1505.58 241.952 1505.58 208.672C1505.58 188.875 1503.45 175.307 1499.18 167.968C1495.08 160.629 1488.6 156.96 1479.72 156.96C1463.34 156.96 1446.61 159.179 1429.55 163.616V246.816ZM1547.49 184.352V172.576C1547.49 161.483 1550.22 153.12 1555.68 147.488C1561.14 141.685 1570.19 138.784 1582.82 138.784C1599.03 138.784 1621.3 140.149 1649.63 142.88V157.472H1582.82C1578.89 157.472 1575.74 157.813 1573.35 158.496C1570.96 159.179 1569.25 160.373 1568.23 162.08C1567.37 163.616 1566.86 165.067 1566.69 166.432C1566.52 167.797 1566.43 169.845 1566.43 172.576V184.352C1566.43 187.765 1566.78 190.496 1567.46 192.544C1568.31 194.592 1569.59 196.043 1571.3 196.896C1573 197.749 1574.63 198.347 1576.16 198.688C1577.7 198.859 1579.92 198.944 1582.82 198.944H1623.27C1634.02 198.944 1642.21 202.016 1647.84 208.16C1653.64 214.133 1656.55 222.069 1656.55 231.968V244.512C1656.55 257.141 1653.47 265.76 1647.33 270.368C1641.19 274.976 1633.16 277.28 1623.27 277.28C1607.39 277.28 1584.01 275.659 1553.12 272.416V258.336H1623.27C1623.61 258.336 1623.95 258.336 1624.29 258.336C1625.48 258.336 1626.68 258.251 1627.87 258.08C1629.07 257.739 1630.43 257.141 1631.97 256.288C1633.68 255.435 1635.04 253.984 1636.07 251.936C1637.09 249.888 1637.6 247.413 1637.6 244.512V231.968C1637.6 227.189 1636.49 223.691 1634.27 221.472C1632.23 219.083 1628.56 217.888 1623.27 217.888H1582.82C1570.36 217.888 1561.31 215.499 1555.68 210.72C1550.22 205.941 1547.49 197.152 1547.49 184.352ZM1688.51 270.112V255.52C1688.51 251.253 1690.56 249.12 1694.65 249.12H1708.22C1712.49 249.12 1714.62 251.253 1714.62 255.52V270.112C1714.62 274.037 1712.49 276 1708.22 276H1694.65C1690.56 276 1688.51 274.037 1688.51 270.112Z"
    fill="white" />
</svg>
